<svg id="Layer_1" data-name="Layer 1" xmlns="http://www.w3.org/2000/svg" viewBox="0 0 1192.35 214.22"><defs><style>.cls-1{fill:#2d2d2d;}.cls-2{fill:#f796b9;}.cls-3{fill:#2f3a93;}.cls-4{fill:#0cd9dc;}</style></defs><path class="cls-1" d="M443.23,22.81a17.8,17.8,0,0,1-.91,5L372.76,211.81q-2.13,5.77-17,5.77h-5.16q-18.22,0-18.23-5.77a11.08,11.08,0,0,1,1.22-4.94l19.13-46.43L302.59,27.76a22.45,22.45,0,0,1-1.21-5q0-6,18.53-6h9.72q14.88,0,17,5.77l17.92,50.82q2.73,7.69,8.5,33.24h1.22q6.08-26.37,8.5-33.24l17.93-50.82q2.12-5.77,17-5.77H425Q443.24,16.77,443.23,22.81Z" transform="translate(-2.65 -3.91)"/><path class="cls-1" d="M459.33,144.1Q440.49,125,440.5,89t18.83-54.94q18.82-19,55-19t54.82,19Q587.82,53,587.81,89T569.13,144.1q-18.68,19.1-54.82,19.09T459.33,144.1Zm76.09-23.63q6.83-10.57,6.83-31.45T535.42,57.7q-6.84-10.44-21.11-10.44T493,57.7q-7,10.44-7,31.32,0,42,28.25,42Q528.58,131.05,535.42,120.47Z" transform="translate(-2.65 -3.91)"/><path class="cls-1" d="M615.75,152.34q-10.93-10.84-10.93-33.65V25.56q0-8.79,18.22-8.79h8.51q18.23,0,18.22,8.79v87.08q0,8.52,4.26,12.78t14,4.25a23,23,0,0,0,14.43-4.8,38,38,0,0,0,9.87-11.13V25.56q0-8.79,18.22-8.79H719q18.22,0,18.22,8.79v87.08a182.84,182.84,0,0,0,.76,19.23q.76,6.6,2,14.56a25.07,25.07,0,0,1,.91,6q0,4.4-12.3,6.59a124.89,124.89,0,0,1-21.72,2.2q-5.48,0-7.59-4a34,34,0,0,1-3.19-8.65c-.72-3.11-1.17-5.22-1.37-6.32a59.2,59.2,0,0,1-19.29,14.84,57,57,0,0,1-26,6Q626.68,163.19,615.75,152.34Z" transform="translate(-2.65 -3.91)"/><path class="cls-1" d="M768.54,212.09v-153q0-18.13-1.83-26t-1.82-8.66c0-2.19,1.92-3.8,5.77-4.8a42.13,42.13,0,0,1,10.63-1.52,6.54,6.54,0,0,1,6.23,4,39.72,39.72,0,0,1,3,8.38c.71,2.93,1.16,4.85,1.37,5.76q21.87-20.6,48.29-20.6,18.53,0,31.74,9.48t20.2,26.1q7,16.62,7,38,0,23.35-7.75,39.84t-21.71,25q-14,8.52-32.2,8.52A71,71,0,0,1,814,159.07a80.8,80.8,0,0,1-19.9-10.44v63.46q0,6-12.15,6h-1.21Q768.54,218.13,768.54,212.09Zm93.55-83q10.32-13.2,10.33-37.91,0-26.65-9.72-41.07T835.06,35.73A50.31,50.31,0,0,0,814,40.67a69.08,69.08,0,0,0-19.9,14V130a60.92,60.92,0,0,0,37.67,12.36Q851.76,142.31,862.09,129.13Z" transform="translate(-2.65 -3.91)"/><path class="cls-1" d="M932,152.2q-14.28-10.44-14.27-30.77,0-21.69,14.43-32.55t35.38-14q21-3.15,51-3.43V58.53a20.49,20.49,0,0,0-7.89-16.62q-7.9-6.45-25.52-6.46a84.66,84.66,0,0,0-23.39,2.89A142.05,142.05,0,0,0,945,44.1Q938.33,47,937.73,47q-3,0-6.84-5.5t-3.8-8.24q0-3.55,8-7.69t21.42-7a130.18,130.18,0,0,1,27.64-2.89q28.24,0,44,11.4T1044,58.8v61.53q0,18.13,1.82,26c1.22,5.22,1.82,8.11,1.82,8.66q0,3.3-5.77,4.8a42.13,42.13,0,0,1-10.63,1.52c-2.84,0-4.91-1.42-6.23-4.26a43.9,43.9,0,0,1-3-8.93c-.72-3.11-1.17-5.13-1.37-6q-20.65,20.6-51,20.6Q946.22,162.64,932,152.2Zm64.55-14.56a105.31,105.31,0,0,0,22-14V91.22q-22.78.27-37.21,1.64a61.7,61.7,0,0,0-25.36,7.7Q945,106.88,945,120.06q0,11,6.53,16.76t19.28,5.77Q985.71,142.59,996.5,137.64Z" transform="translate(-2.65 -3.91)"/><path class="cls-1" d="M1195,21.44a12,12,0,0,1-.91,3.85L1116,212.36q-2.44,5.77-14.28,5.77h-4.56q-10,0-10-4.4a16.16,16.16,0,0,1,1.52-4.67l25.51-56L1061.05,25a12,12,0,0,1-.91-3.57q0-4.67,13.06-4.67h2.43q10.62,0,12.15,4.4l31,74.44q4.86,12.09,9.72,27.75h.61c.4-1.28.8-2.52,1.21-3.71s.81-2.34,1.22-3.44l7.59-20.6,30.38-74.44q1.52-4.4,12.45-4.4h.91Q1195,16.77,1195,21.44Z" transform="translate(-2.65 -3.91)"/><path class="cls-2" d="M112.71,113.35V3.91H2.65S76.43,67.55,89,175C89,175,112.71,160.19,112.71,113.35Z" transform="translate(-2.65 -3.91)"/><path class="cls-3" d="M175.21,88.58V3.91H112.7V113.35C112.7,160.19,89,175,89,175,136.5,175,175.21,136,175.21,88.58Z" transform="translate(-2.65 -3.91)"/><path class="cls-4" d="M179.62,3.91h-4.46V88.58C175.16,136,136.5,175,89,175l90.58-.12c47.45,0,86.28-38,86.28-85.47S227.07,3.91,179.62,3.91Z" transform="translate(-2.65 -3.91)"/></svg>